# xmcd
#
# Track frame offsets:
#	182
#	16230
#	34360
#	52215
#
# Disc length: 877 seconds
# Revision: 0
# Processed by: cddbd v1.5.2PL0 Copyright (c) Steve Scherf et al.
# Submitted via: dBpowerAMP V12.0
#
DISCID=31036b04
DTITLE=Bad Boys Inc. - Love Here I Come [Single Part 2]
DYEAR=1994
DGENRE=House
TTITLE0=Love Here I Come [Hoax Remix]
TTITLE1=Take Me Home
TTITLE2=Turn It Around
TTITLE3=I’ve Got The Need
EXTD=
EXTT0=
EXTT1=
EXTT2=
EXTT3=
PLAYORDER=
